Coordinates
version=1
nRows=6
nColumns=36
inDegrees=yes

Units are S.I. units (second, meters, Newtons, ...)
If the header above contains a line with 'inDegrees', this indicates whether rotational values are in degrees (yes) or radians (no).

endheader
time	pelvis_tilt	pelvis_list	pelvis_rotation	pelvis_tx	pelvis_ty	pelvis_tz	hip_flexion_r	hip_adduction_r	hip_rotation_r	knee_angle_r	knee_angle_r_beta	ankle_angle_r	subtalar_angle_r	mtp_angle_r	hip_flexion_l	hip_adduction_l	hip_rotation_l	knee_angle_l	knee_angle_l_beta	ankle_angle_l	subtalar_angle_l	mtp_angle_l	lumbar_extension	lumbar_bending	lumbar_rotation	arm_flex_r	arm_add_r	arm_rot_r	elbow_flex_r	pro_sup_r	arm_flex_l	arm_add_l	arm_rot_l	elbow_flex_l	pro_sup_l
      2.45000000	     -1.02623018	      1.27257869	      4.02845364	      0.37836842	      1.03229189	     -0.08597850	     21.36709062	     -4.84282715	     -5.26109737	     19.98384459	      0.34878389	    -24.80224776	     -5.35778248	     -7.49999987	     24.71204096	     -7.89586975	    -10.41040840	     32.20743768	      0.56212583	    -15.12838601	      0.54761967	     -7.49999987	    -24.58433818	     -2.62024157	     -3.40791898	    -13.27168119	    -16.94936410	     37.98879086	     23.25001377	     48.15715540	     -6.21433906	    -18.21470187	     36.18453900	     21.34781635	     56.83855276
      2.46666670	     -0.48248080	      1.34374934	      3.99106241	      0.39452690	      1.00190583	     -0.08534252	     20.29418472	     -5.14347483	     -5.58580683	     19.03856199	      0.33228559	    -27.30739382	     -4.53142263	     -7.49999987	     23.93572354	     -8.37742105	    -10.53913320	     28.78643450	      0.50241806	    -16.74579310	      3.81588839	     -7.49999987	    -24.88529194	     -2.75581046	     -2.77512704	    -17.81718865	    -17.71676888	     31.83003634	     26.41072557	     48.66120534	     -9.47366684	    -18.11109228	     37.26544960	     20.00022893	     52.98361287
      2.48333330	      0.00451503	      1.24399392	      3.92629013	      0.41049675	      0.96161748	     -0.08422265	     19.91527766	     -5.24442284	     -5.28141024	     19.97270935	      0.34858954	    -28.30844407	     -5.49249261	     -7.49999987	     23.70555833	     -8.95188818	    -10.08761018	     27.97873552	      0.48832106	    -17.13996948	      6.85672593	     -7.49999987	    -25.04347914	     -2.76925180	     -2.72233554	    -20.88558424	    -18.64171354	     31.57941523	     28.17390074	     49.55872611	    -13.07777442	    -18.70284088	     39.20713455	     20.22312996	     52.79951014
      2.50000000	      0.62037414	      0.89871692	      4.07219770	      0.42274613	      0.92507034	     -0.08468648	     20.85732700	     -5.16926180	     -3.46700458	     24.31007002	      0.42429076	    -23.28635263	     -7.46694335	     -7.49999987	     24.26073862	     -9.55754050	     -8.43626905	     30.48404264	      0.53204691	    -12.78815454	      8.96048933	     -7.49999987	    -25.97733135	     -2.19792989	     -3.24957869	    -22.64680017	    -19.67087067	     30.88526275	     29.89310549	     50.40740130	    -15.93919537	    -19.14126092	     40.06929548	     21.45033810	     53.24075175
      2.51666670	      1.61831394	      0.63766576	      4.49943260	      0.43473970	      0.88707472	     -0.08604640	     22.52400711	     -4.85315479	     -0.77240733	     32.65213656	      0.56988729	    -11.96223360	    -10.82576740	     -7.49999987	     26.10667028	    -10.25743970	     -6.24774881	     37.37936249	      0.65239295	     -4.73533415	      9.16154133	     -7.49999987	    -27.66138714	     -1.63827638	     -3.97819827	    -23.61412196	    -20.31020461	     30.03132358	     31.94266325	     51.78442975	    -17.41098324	    -19.96152938	     40.91716785	     23.22725892	     53.96951661
      2.53333330	      1.80411895	      0.65361060	      4.84204501	      0.45190202	      0.85205245	     -0.08953442	     25.85283517	     -4.70085943	      1.71477259	     42.75964418	      0.74629658	      1.96365765	    -13.13738544	     -7.49999987	     29.45916576	    -10.42232497	     -4.48556040	     47.47255893	      0.82855246	      6.68429689	      8.72239693	     -7.49999987	    -28.31298300	     -1.34846767	     -4.57885796	    -22.78341419	    -20.19499638	     29.86953176	     31.28644810	     52.31903242	    -16.78958487	    -19.82172633	     42.69544945	     22.52293552	     54.01119626
